<svg width="98" height="108" viewBox="0 0 98 108" fill="none" xmlns="http://www.w3.org/2000/svg"><path d="M10.0182 39.0711C10.0182 17.4927 27.511 0 49.0894 0C70.6678 0 88.1605 17.4927 88.1605 39.0711V40.0013C93.6093 40.087 98 44.5308 98 50C98 55.4692 93.6093 59.913 88.1605 59.9987V68.9289C88.1605 90.5073 70.6678 108 49.0894 108C27.511 108 10.0182 90.5073 10.0182 68.9289V60C10.0122 60 10.0061 60 10 60C4.47715 60 0 55.5228 0 50C0 44.4772 4.47715 40 10 40C10.0061 40 10.0122 40 10.0182 40V39.0711Z" fill="#F3C09A"/></svg>